<?xml version="1.0" encoding="UTF-8"?>
<svg xmlns="http://www.w3.org/2000/svg" xmlns:xlink="http://www.w3.org/1999/xlink" width="48px" height="48px" viewBox="0 0 48 48" version="1.1">
<g id="surface1">
<path style=" stroke:none;fill-rule:nonzero;fill:rgb(0%,0%,0%);fill-opacity:1;" d="M 9.105469 0.851562 C 8.640625 1.335938 8.414062 2.730469 8.640625 3.695312 C 8.878906 4.691406 9.230469 5.117188 9.839844 5.117188 C 10.449219 5.117188 10.800781 4.691406 11.039062 3.695312 C 11.28125 2.703125 11.039062 1.308594 10.542969 0.851562 C 10.191406 0.484375 9.441406 0.511719 9.105469 0.851562 Z M 10.304688 1.875 C 10.449219 2.105469 10.558594 2.558594 10.558594 2.84375 C 10.558594 3.296875 10.175781 4.265625 10 4.265625 C 9.96875 4.265625 9.761719 4.152344 9.535156 3.980469 C 9.214844 3.78125 9.121094 3.496094 9.121094 2.871094 C 9.121094 1.59375 9.824219 0.996094 10.304688 1.875 Z M 10.304688 1.875 "/>
<path style=" stroke:none;fill-rule:nonzero;fill:rgb(0%,0%,0%);fill-opacity:1;" d="M 4.558594 3.554688 C 3.742188 4.976562 4.320312 7.394531 5.488281 7.394531 C 6.191406 7.394531 6.71875 6.425781 6.71875 5.089844 C 6.71875 3.042969 5.375 2.074219 4.558594 3.554688 Z M 5.953125 4.179688 C 6.304688 4.75 6.320312 5.347656 5.96875 6.027344 C 5.617188 6.710938 5.183594 6.683594 4.894531 5.914062 C 4.574219 5.089844 4.574219 4.949219 4.960938 4.265625 C 5.34375 3.582031 5.566406 3.554688 5.953125 4.179688 Z M 5.953125 4.179688 "/>
<path style=" stroke:none;fill-rule:nonzero;fill:rgb(0%,0%,0%);fill-opacity:1;" d="M 13.3125 3.496094 C 12.832031 4.40625 12.847656 5.972656 13.328125 6.769531 C 14.160156 8.160156 15.519531 7.136719 15.519531 5.148438 C 15.519531 3.15625 14.0625 2.046875 13.3125 3.496094 Z M 14.769531 4.207031 C 15.054688 4.777344 15.039062 5.429688 14.71875 6.085938 C 14.414062 6.769531 13.886719 6.539062 13.617188 5.628906 C 13.390625 4.949219 13.390625 4.835938 13.664062 4.292969 C 14.03125 3.554688 14.433594 3.527344 14.769531 4.207031 Z M 14.769531 4.207031 "/>
<path style=" stroke:none;fill-rule:nonzero;fill:rgb(0%,0%,0%);fill-opacity:1;" d="M 1.632812 8.617188 C 0.832031 10.125 1.425781 12.511719 2.59375 12.511719 C 3.710938 12.511719 4.238281 10.066406 3.441406 8.671875 C 2.929688 7.734375 2.113281 7.707031 1.632812 8.617188 Z M 2.992188 9.15625 C 3.3125 9.894531 3.328125 10.519531 3.054688 11.117188 C 2.671875 11.972656 1.96875 11.6875 1.824219 10.605469 C 1.648438 9.441406 2.609375 8.273438 2.992188 9.15625 Z M 2.992188 9.15625 "/>
<path style=" stroke:none;fill-rule:nonzero;fill:rgb(0%,0%,0%);fill-opacity:1;" d="M 16.238281 8.671875 C 15.425781 10.09375 16 12.511719 17.152344 12.511719 C 18 12.484375 18.6875 11.117188 18.464844 9.867188 C 18.144531 7.960938 16.976562 7.335938 16.238281 8.671875 Z M 17.632812 9.296875 C 17.984375 9.839844 18 10.464844 17.679688 11.203125 C 17.328125 12.027344 16.574219 11.515625 16.511719 10.4375 C 16.414062 8.984375 17.039062 8.332031 17.632812 9.296875 Z M 17.632812 9.296875 "/>
<path style=" stroke:none;fill-rule:nonzero;fill:rgb(0%,0%,0%);fill-opacity:1;" d="M 0.320312 14.84375 C 0.320312 15.269531 0.464844 15.355469 1.089844 15.355469 C 1.953125 15.355469 2.496094 15.894531 2.753906 17.03125 C 2.863281 17.488281 2.976562 21.78125 3.039062 28.4375 C 3.136719 37.707031 3.183594 39.296875 3.441406 40.605469 C 4.222656 44.617188 6.574219 46.890625 9.953125 46.917969 C 13.761719 46.917969 15.9375 44.359375 16.640625 38.957031 C 16.785156 37.933594 16.878906 33.980469 16.945312 27.441406 C 17.039062 17.003906 17.070312 16.71875 17.792969 15.808594 C 18.304688 15.15625 19.457031 15.242188 20.015625 15.953125 L 20.480469 16.519531 L 20.480469 23.859375 C 20.480469 31.933594 20.449219 32.21875 19.535156 32.21875 C 19.230469 32.21875 19.039062 32.359375 19.039062 32.617188 C 19.039062 32.902344 19.457031 32.984375 20.878906 32.984375 C 22.304688 32.984375 22.71875 32.902344 22.71875 32.617188 C 22.71875 32.359375 22.527344 32.21875 22.238281 32.21875 C 21.328125 32.21875 21.3125 32.046875 21.246094 24.796875 C 21.214844 19.363281 21.230469 18.285156 21.40625 18.683594 C 21.519531 18.96875 23.070312 22.351562 24.847656 26.21875 L 28.078125 33.242188 L 29.390625 33.269531 L 30.703125 33.269531 L 31.007812 31.480469 L 31.328125 29.714844 L 32.785156 29.628906 C 33.792969 29.574219 34.238281 29.660156 34.238281 29.886719 C 34.238281 30.058594 34.351562 30.882812 34.496094 31.734375 L 34.734375 33.269531 L 38.078125 33.269531 L 37.984375 32.558594 C 37.9375 32.191406 37.183594 27.925781 36.335938 23.117188 L 34.800781 14.359375 L 31.296875 14.359375 L 29.96875 22.007812 C 29.152344 26.644531 28.6875 29.773438 28.785156 29.941406 C 29.007812 30.339844 29.105469 29.914062 30.398438 22.464844 L 31.632812 15.496094 L 34.464844 15.496094 L 34.992188 18.339844 C 35.296875 19.90625 35.695312 22.207031 35.902344 23.460938 C 36.113281 24.710938 36.433594 26.671875 36.625 27.839844 C 36.816406 29.003906 37.039062 30.140625 37.105469 30.398438 C 37.183594 30.652344 37.28125 31.164062 37.296875 31.535156 C 37.359375 32.191406 37.3125 32.21875 36.398438 32.273438 C 35.871094 32.304688 35.359375 32.273438 35.265625 32.21875 C 35.152344 32.160156 34.992188 31.535156 34.878906 30.851562 C 34.609375 29.089844 34.207031 28.71875 32.671875 28.71875 C 31.230469 28.71875 30.816406 29.148438 30.625 30.851562 C 30.496094 32.046875 30.414062 32.160156 29.550781 32.304688 C 29.183594 32.359375 28.734375 32.472656 28.558594 32.53125 C 28.238281 32.671875 28.238281 32.558594 28.320312 24.339844 C 28.398438 15.242188 28.414062 15.183594 29.328125 15.015625 C 29.617188 14.957031 29.824219 14.816406 29.808594 14.644531 C 29.777344 14.503906 29.007812 14.386719 28 14.386719 C 26.992188 14.386719 26.222656 14.503906 26.207031 14.644531 C 26.175781 14.816406 26.398438 14.957031 26.6875 15.015625 C 27.632812 15.183594 27.695312 15.667969 27.648438 22.265625 L 27.601562 28.09375 L 24.480469 21.296875 L 21.359375 14.503906 L 17.230469 14.417969 C 13.40625 14.359375 13.121094 14.386719 13.121094 14.84375 C 13.121094 15.242188 13.265625 15.355469 13.742188 15.355469 C 14.703125 15.355469 15.183594 15.808594 15.441406 16.917969 C 15.632812 17.714844 15.679688 19.707031 15.679688 27.042969 C 15.679688 37.394531 15.566406 39.183594 14.816406 41.175781 C 13.871094 43.675781 11.824219 45.128906 9.664062 44.84375 C 8.367188 44.671875 7.535156 44.019531 6.769531 42.597656 C 5.710938 40.636719 5.441406 37.5625 5.441406 27.015625 C 5.441406 16.605469 5.585938 15.667969 7.265625 15.414062 C 7.953125 15.328125 8.160156 15.183594 8.160156 14.816406 C 8.160156 14.417969 7.761719 14.359375 4.238281 14.359375 C 0.609375 14.359375 0.320312 14.386719 0.320312 14.84375 Z M 5.230469 15.582031 C 5.375 15.753906 5.375 16.09375 5.183594 17.0625 C 4.976562 18.113281 4.945312 19.933594 5.007812 28.578125 C 5.070312 40.578125 5.105469 40.890625 6.527344 43.480469 C 6.976562 44.332031 7.359375 45.070312 7.359375 45.128906 C 7.359375 45.695312 5.695312 44.21875 5.039062 43.082031 C 3.777344 40.917969 3.535156 38.273438 3.519531 26.386719 C 3.519531 20.386719 3.457031 17.914062 3.296875 16.949219 C 3.167969 16.238281 3.105469 15.613281 3.136719 15.554688 C 3.265625 15.328125 5.039062 15.355469 5.230469 15.582031 Z M 16.832031 15.925781 C 16.800781 16.125 16.6875 16.636719 16.574219 17.03125 L 16.351562 17.742188 L 16.097656 16.835938 C 15.777344 15.726562 15.839844 15.46875 16.433594 15.496094 C 16.71875 15.496094 16.863281 15.667969 16.832031 15.925781 Z M 22.449219 18.570312 C 23.167969 20.191406 24.128906 22.265625 24.558594 23.203125 C 25.007812 24.140625 25.585938 25.394531 25.839844 25.992188 C 26.449219 27.414062 27.054688 28.40625 27.375 28.578125 C 27.617188 28.71875 27.824219 29.515625 27.839844 30.199219 C 27.839844 30.882812 27.375 30.058594 25.902344 26.785156 C 23.121094 20.671875 21.984375 18.339844 21.566406 17.972656 C 21.054688 17.488281 20.65625 15.640625 21.070312 15.640625 C 21.105469 15.640625 21.710938 16.949219 22.449219 18.570312 Z M 22.449219 18.570312 "/>
<path style=" stroke:none;fill-rule:nonzero;fill:rgb(0%,0%,0%);fill-opacity:1;" d="M 38.238281 23.742188 L 38.238281 33.328125 L 41.089844 33.214844 C 43.808594 33.128906 43.953125 33.097656 44.832031 32.332031 C 45.871094 31.421875 46.769531 29.800781 47.265625 27.894531 C 47.535156 26.84375 47.601562 26.046875 47.601562 23.742188 C 47.601562 21.042969 47.566406 20.816406 47.054688 19.109375 C 46.753906 18.113281 46.222656 16.863281 45.871094 16.351562 C 44.832031 14.757812 44.097656 14.445312 41.007812 14.304688 L 38.238281 14.132812 Z M 44.257812 15.78125 C 47.167969 17.375 48.160156 25.25 46.015625 29.773438 C 45.199219 31.480469 44.191406 32.074219 41.648438 32.273438 C 40.398438 32.386719 39.230469 32.386719 39.054688 32.273438 C 38.71875 32.105469 38.71875 31.960938 38.71875 23.714844 L 38.71875 15.355469 L 41.089844 15.355469 C 42.769531 15.355469 43.695312 15.46875 44.257812 15.78125 Z M 44.257812 15.78125 "/>
<path style=" stroke:none;fill-rule:nonzero;fill:rgb(0%,0%,0%);fill-opacity:1;" d="M 41.441406 18.425781 L 41.039062 18.996094 L 41.070312 23.773438 C 41.121094 29.230469 41.199219 29.574219 42.289062 29.574219 C 43.472656 29.574219 44.382812 27.78125 44.625 24.996094 C 44.945312 21.441406 44 18.285156 42.558594 18 C 41.984375 17.886719 41.742188 17.972656 41.441406 18.425781 Z M 43.28125 19.394531 C 43.886719 20.246094 44.160156 21.554688 44.160156 23.742188 C 44.160156 26.957031 43.457031 28.71875 42.175781 28.71875 L 41.519531 28.71875 L 41.519531 18.769531 L 42.175781 18.769531 C 42.609375 18.769531 42.992188 18.96875 43.28125 19.394531 Z M 43.28125 19.394531 "/>
<path style=" stroke:none;fill-rule:nonzero;fill:rgb(0%,0%,0%);fill-opacity:1;" d="M 33.136719 20.417969 C 33.121094 20.617188 33.054688 20.730469 32.976562 20.644531 C 32.832031 20.472656 32.960938 21.667969 33.3125 23.859375 C 33.550781 25.25 33.921875 25.761719 33.902344 24.683594 C 33.902344 23.941406 33.152344 19.847656 33.136719 20.417969 Z M 33.136719 20.417969 "/>
<path style=" stroke:none;fill-rule:nonzero;fill:rgb(0%,0%,0%);fill-opacity:1;" d="M 32.175781 20.957031 C 32.097656 21.242188 31.921875 22.207031 31.761719 23.089844 C 31.519531 24.652344 31.519531 24.769531 31.792969 25.449219 C 32.03125 26.046875 32.191406 26.160156 32.785156 26.105469 C 33.824219 25.992188 33.839844 25.308594 32.816406 25.308594 C 32.367188 25.308594 32 25.222656 32 25.082031 C 32 24.96875 32.144531 23.972656 32.320312 22.890625 C 32.496094 21.808594 32.640625 20.816406 32.640625 20.703125 C 32.640625 20.273438 32.335938 20.472656 32.175781 20.957031 Z M 32.175781 20.957031 "/>
<path style=" stroke:none;fill-rule:nonzero;fill:rgb(0%,0%,0%);fill-opacity:1;" d="M 29.710938 35.546875 C 29.183594 36.285156 29.054688 37.335938 29.34375 38.359375 C 29.617188 39.296875 29.886719 39.527344 30.640625 39.527344 C 31.023438 39.527344 31.265625 39.328125 31.503906 38.785156 C 32.496094 36.539062 30.960938 33.78125 29.710938 35.546875 Z M 31.167969 37.164062 C 31.230469 38.21875 30.863281 38.816406 30.335938 38.558594 C 29.902344 38.359375 29.679688 37.5625 29.839844 36.710938 C 30.046875 35.488281 31.089844 35.859375 31.167969 37.164062 Z M 31.167969 37.164062 "/>
<path style=" stroke:none;fill-rule:nonzero;fill:rgb(0%,0%,0%);fill-opacity:1;" d="M 44.238281 35.6875 C 43.425781 37.109375 43.96875 39.527344 45.105469 39.527344 C 45.886719 39.527344 46.398438 38.617188 46.398438 37.195312 C 46.398438 35.203125 45.023438 34.265625 44.238281 35.6875 Z M 45.886719 37.164062 C 45.953125 37.875 45.535156 38.671875 45.121094 38.671875 C 44.71875 38.671875 44.273438 37.480469 44.414062 36.851562 C 44.671875 35.628906 45.777344 35.886719 45.886719 37.164062 Z M 45.886719 37.164062 "/>
<path style=" stroke:none;fill-rule:nonzero;fill:rgb(0%,0%,0%);fill-opacity:1;" d="M 32.558594 40.804688 C 31.710938 42.285156 32.273438 44.644531 33.457031 44.644531 C 34.175781 44.644531 34.71875 43.675781 34.71875 42.398438 C 34.71875 41.203125 34.113281 40.09375 33.441406 40.09375 C 33.136719 40.09375 32.800781 40.351562 32.558594 40.804688 Z M 34.160156 42.058594 C 34.289062 42.824219 34.097656 43.480469 33.648438 43.675781 C 33.121094 43.933594 32.558594 42.996094 32.71875 42.113281 C 32.929688 40.890625 33.9375 40.835938 34.160156 42.058594 Z M 34.160156 42.058594 "/>
<path style=" stroke:none;fill-rule:nonzero;fill:rgb(0%,0%,0%);fill-opacity:1;" d="M 41.375 40.691406 C 40.609375 41.773438 40.960938 44.558594 41.886719 44.671875 C 42.527344 44.757812 42.816406 44.585938 43.167969 43.90625 C 44.238281 41.773438 42.65625 38.902344 41.375 40.691406 Z M 42.878906 42.339844 C 42.878906 42.796875 42.769531 43.308594 42.640625 43.507812 C 42.289062 44.019531 41.617188 43.621094 41.503906 42.796875 C 41.390625 41.972656 41.519531 41.546875 41.984375 41.230469 C 42.480469 40.917969 42.878906 41.402344 42.878906 42.339844 Z M 42.878906 42.339844 "/>
<path style=" stroke:none;fill-rule:nonzero;fill:rgb(0%,0%,0%);fill-opacity:1;" d="M 37.105469 42.738281 C 36.433594 43.648438 36.304688 45.128906 36.847656 46.179688 C 37.457031 47.402344 38.542969 47.203125 38.960938 45.78125 C 39.296875 44.617188 39.265625 44.132812 38.734375 43.195312 C 38.238281 42.3125 37.550781 42.113281 37.105469 42.738281 Z M 38.433594 43.90625 C 38.671875 44.53125 38.558594 45.414062 38.175781 45.78125 C 37.488281 46.4375 36.992188 45.640625 37.183594 44.246094 C 37.3125 43.28125 38.113281 43.050781 38.433594 43.90625 Z M 38.433594 43.90625 "/>
</g>
</svg>
